<svg xmlns="http://www.w3.org/2000/svg" width="1054" height="872.59" viewBox="0 0 1054 872.59">
  <defs>
    <style>
      .cls-1 {
        fill: #3e0d4e;
        fill-rule: evenodd;
      }
    </style>
  </defs>
  <path id="Color_Fill_3" data-name="Color Fill 3" class="cls-1" d="M1024,425c15.71,4.743,32.37,27.923,42,40,30.95,38.805,57.45,74.275,76,127,3.4,9.658,20.34,52.844,16,65q-13.5,18.5-27,37-12,26.5-24,53c-0.67-.333-1.33-0.667-2-1-8.97-52.581-45.86-146.024-79-172h-2c-19.64,29.139-41.016,57.7-55,93l-24,78-3-2c-5.051-24.251-20.454-48.366-33-67l-14-18c-5.332-15.834,11.893-59.463,16-71C935.531,518.1,976.341,470.368,1024,425ZM695,560c22.719,2.376,45.175,14.213,64,22,96.479,39.908,160.985,102.591,182,218,3.84,21.086-8.963,52.389-12,73h-1l-3-2c-14.3-52.309-71.876-111.033-111-141-15.062-11.537-34.4-31.659-56-35-5.84,39.954-4.619,88.4,4,125l17,56h-1a604.547,604.547,0,0,0-67-22C667.836,772.762,656.388,658.538,695,560Zm656,0h6c19.65,71.786,34.33,171.518,6,246-5.41,14.237-10.66,39.561-22,48-3.21,2.39-63.57,20.968-69,22v-4c21.14-48,27.05-111.827,21-177-17.08,3.615-30.47,17.108-43,26-39.85,28.278-75.15,63.961-101,106q-12.495,23-25,46c-0.67-.333-1.33-0.667-2-1-2.84-19.34-8.27-39.254-12-56-6.32-28.347,16.2-77.533,25-95,30.4-60.338,73.77-99.87,134-130ZM1025,677c16.39,13.011,26.13,38.493,37,57,46.71,79.559,77.28,203.182,20,297-11.01,18.04-26.28,47.7-48,54l-1-1v-35q9-10.005,18-20c11.99-16.4,21.64-37.523,28-59,25.78-87.123-16.48-173.508-53-222h-1c-37.551,44.123-76.947,128.859-56,213,5.754,23.114,14.791,45.77,27,63q10.5,12.495,21,25c2.43,7.82,1.18,31.58-2,36-24.514-15.41-43.745-42.29-56-70C902.724,887.733,965.923,758.5,1025,677Zm358,189c58.73-1.105,132.48,11.932,170,34-16.79,137.27-120.34,259.99-236,300-78.28,27.08-209,1.54-243-45q20.505,2.505,41,5c32.17,5.36,71.42,3.25,101-2,98.07-17.42,157.77-54.5,201-126,9.82-16.24,21.11-35.322,25-57-0.33-.333-0.67-0.667-1-1-136.97-20.6-232.78,20.188-311,82-23.53,18.6-44.76,54.34-62,69h-1v-6c40.06-107.48,106.73-187.53,210-231,21.28-8.957,46.69-14.061,71-19Zm-743,1c147.045-2.428,240.581,67.429,297,156,17.378,27.28,45.389,62.56,48,102h-1c-1.729-4.12.245-.59-4-2-5.86-13.01-17.563-22.44-26-33-50.117-62.71-125.051-98.769-218-119-26.507-5.769-107.554-10.35-126,5,25.356,108.79,118.265,164,236,183,26.379,4.26,62.894,5.31,90,1q20.5-2.505,41-5c-37.637,49.67-162.167,69.98-242,45-112.658-35.26-222.566-167.01-236-300,27.683-12.615,60.972-21.144,94-28Zm133,357c60.815,0.98,75.453,50.48,139,39,19.834-3.58,37.478-9.97,51-20,6.407-4.75,9.159-12.61,18-15v5q-5.5,16.995-11,34c-9.008,13.96-25.838,20.98-44,26-71.118,19.66-127.412-27.67-154-67C772.333,1225.33,772.667,1224.67,773,1224Zm496,0h10c-16.74,68.58-208.16,118.31-209,4,15.7,4.79,30.66,25.01,54,32,38.44,11.5,79.24-4.5,101-20q7.995-7.005,16-14Q1254.995,1224.995,1269,1224Zm-278,17c7.5,2.32,9.3,7.48,15,11,22.32,13.77,37.95-1.9,53-11,1,0.67,2,1.33,3,2q4.5,13.995,9,28c-25.97,20.29-68.81,29.52-92-2Q985,1255.005,991,1241Z" transform="translate(-499 -425)"/>
</svg>
