<svg xmlns="http://www.w3.org/2000/svg" width="1180.12" height="197.28" viewBox="0 0 1180.12 197.28">
  <defs>
    <style>
      .cls-1 {
        fill: #3e0d4e;
        fill-rule: evenodd;
      }
    </style>
  </defs>
  <path id="Color_Fill_1" data-name="Color Fill 1" class="cls-1" d="M588,1148c-16.036.47-47.908,29.54-40,48,6.533,11.17,27.407,1.6,34-3,23.705-16.54,37.418-60.58,80-51,1,1.33,2,2.67,3,4v3c-25.572-5.77-73.689,32.11-56,50,17.33-9.54,36.573-42.47,52-46,1.667,1.33,3.333,2.67,5,4-5.009,11.48-14.716,26.34-9,42,31.009-3.89,49.309-73.3,66-97,6.151-8.73,16.431-27.96,34-21,3.416,1.62,3.346,1.63,5,5,7.889,33.09-56.546,69.21-64,90-2.806,7.83-3.874,26.5,9,23,9-2.44,24.287-19.61,28-28h4c-0.667,1.33-1.333,2.67-2,4-5.469,13.68-21.946,30.79-41,31q-4-2.505-8-5a47.41,47.41,0,0,1-2-17c-7.615,6.81-20.019,27.25-36,21l-5-3c-1.494-8.83-1.062-15.53,0-25-11.069,9.67-16.578,24.59-35,27-8.807-5.68-10.561-7.82-16-17v2c-12.348,7.84-57.461,36.36-59-3-0.667.33-1.333,0.67-2,1-4.378,9.73-16.227,18.58-30,19-3.2-1.62-4.189-1.85-6-5-9.2-13.3,6.17-36.31,11-47-28.178,5.29-26.9,49.39-55,52v-3q6.5-20.505,13-41c-0.667.33-1.333,0.67-2,1-2.25,5.46-6.965,12.15-13,14v-3c6.772-10.2,12.955-21.17,21-28q2.5-7.005,5-14c8.345-19.14,24.245-57.13,54-51,1.667,1.67,3.333,3.33,5,5-0.641,38-40.77,43.57-56,67q-5,14.505-10,29c10.83-9.68,29.9-46.88,50-38,2.848,19.61-16.776,29.97-13,53,1,0.33,2,.67,3,1s2,0.67,3,1c13.61-13,59.351-76.31,82-52-0.024,21.41-20.951,32.1-41,33,1.311-2.8,29.169-20.66,34-25v-7Zm626,51c-2.33-.33-4.67-0.67-7-1-4.07-8.33-2.41-18.72,0-28h-1v2q-3.495,4.995-7,10h-4c2.49-11.76,12.55-17.8,17-28,11.39-26.1,21.86-82.52,62-72,0.33,1,.67,2,1,3,14.29,26.99-55.44,60.79-60,89h1v-2c12.25-12.8,21.33-31.5,46-26q3,3.495,6,7c0.96,27.81-21.03,44.11-40,52-7.24,3.01-26.32,6.66-30-2,27.7,3.12,62.86-22.89,57-52-2.33-.33-4.67-0.67-7-1C1230.26,1158.35,1213.51,1172.27,1214,1199Zm118-119c3.67,0.33,7.33.67,11,1,2,1.67,4,3.33,6,5-0.55,48.08-72.02,68.98-65,109,1,1.33,2,2.67,3,4h6c23.11-14.97,35.59-58.03,66-59,3.2,1.62,4.19,1.85,6,5,2.15,3.55,1.64,4.12,0,8,17.95,2.14,1.13,27.52-1,35h2c2,0.33,4,.67,6,1,18.78-12.82,25.8-53.82,58-48l5,5c-0.49,4.96-.47,4.58-3,7h-1c-1.71-4.54-1.16-4.42-7-5-15.69,7.53-31.71,28.8-26,51,2.67,0.67,5.33,1.33,8,2,11.12-4.95,24.6-21.43,27-34,1.42-7.45-1.9-8.77,0-14h1c16.35,3.32.11,27.53-2,35,1,0.33,2,.67,3,1h3c18.52-5.33,26.07-31.55,36-46,5.67,0.05,6.39.27,9,3q-6.495,18-13,36h1v-2c15.49-13.39,24.9-28.16,43-40,1.67,0.67,3.33,1.33,5,2,0.67,1,1.33,2,2,3q-4.005,12.495-8,25c10.8-8.38,17.04-19.54,36-20,0.33,0.67.67,1.33,1,2-4.53,10.61-17.71,28.63-14,42,0.67,1.67,1.33,3.33,2,5h4c11.32-9.2,20.21-19.83,31-29l2,2c-5.54,10.59-25.95,40.29-44,33-1.67-1-3.33-2-5-3-4.2-15.54,2.38-29.47,8-41l-1-1c-15.26,7.8-20.63,23.29-34,32-1.67-.67-3.33-1.33-5-2,0.61-13.87,8.49-23.37,13-35l-2-2c-22.79,12.22-26.45,44.67-51,54l-2-2q5.505-17.505,11-35h-1c-10.42,29.86-32.63,18.29-42,30-7.01,2.9-10.18,5.87-21,6-9.07-4.04-13.45-8.26-13-22-8.15,6.72-15.49,15.55-27,8-9.09,8.74-16.84,16.61-34,12-4.43-5.79-7.73-8.47-8-19-10.37,8.6-15.15,20.58-34,21-4.42-2.11-6.89-3.48-9-8C1258.11,1169.71,1316.35,1090.14,1332,1080Zm292,5c1.67,0.33,3.33.67,5,1,1.92,1.39.6,0.1,2,2,2.49,4.18-30.62,77.3-37,87h-3l-1-1C1590.83,1148.57,1611.8,1101.74,1624,1085Zm-358,1c-18.9,13.58-33.49,35.45-41,60,18.04-10.41,41.76-34.34,46-58l-2-2h-3Zm-742,1c-16.155,13.56-31.566,31.04-38,54,18.406-11.81,35.961-29.84,44-52-0.333-.67-0.667-1.33-1-2h-5Zm232,0h-6c-19.636,21.83-38.092,44.19-47,77C719.388,1151.68,754.363,1112.03,756,1087Zm581,0c-21.11,19.62-39.19,45.42-48,77,20.53-15.42,48.59-46.91,54-76l-1-1h-5Zm-416,35h5q-4,10.005-8,20c10.65-.28,19.2-0.45,26,2v4c-8.3,9.65-30.783,34.05-23,51h4q9-7.005,18-14c9.586-11.62,25.692-53.3,50-44,2,1.33,4,2.67,6,4-0.333,2.67-.667,5.33-1,8,5.47,0.47,5,.2,7,4,3.13,10.67-3.85,22.88-9,29l2,3c1,0.33,2,.67,3,1,22.18-9.76,23.58-34.45,41-48,3.33,0.33,6.67.67,10,1,0.33,0.67.67,1.33,1,2-7.34,16.82-27.83,27.08-23,53h4c13.6-8.47,36.48-56.14,48-44-4.44,13.97-12.06,26.36-8,44,2.33,0.33,4.67.67,7,1,17.89-8.86,40.87-35.41,34-62-3.64-1.97-7.4-2.42-9-7h10c4.86,2.04,6.9,3.13,9,8,6.73,23.95-30.9,67.17-54,67-11.53-5.92-7.28-13.17-12-26v2c-8.07,9.65-12.48,21.69-29,23q-4.5-2.505-9-5-1-9-2-18v2q-7,6-14,12c-12.6,5.03-13.321-5.24-22,6-11.216,4.83-19.837,6.11-30-1-2.123-5.93-3.36-10.11-3-17-0.667.33-1.333,0.67-2,1-3.671,8.45-21.39,26.72-35,21-2-1.33-4-2.67-6-4-2.444-26.13,16.8-29.96,21-49l-2-3q-7.5-.495-15-1l-19,30q-18,16.005-36,32l-15,30c-6.553,12.78-19.782,41.86-40,36-6.182-.71-7.925-2.31-10-7-7.6-31.4,38.935-44.51,53-60q9-22.005,18-44c-0.667.33-1.333,0.67-2,1-5.994,14.28-23.159,35.7-42,37l-11-6c-9.725-30.68,48.645-75.29,68-50v3c-27.73-7.45-64.881,16.93-59,47,0.667,0.33,1.333.67,2,1,22.9-6.76,33.443-30.47,49-45,6.347,0.73,8.5,2.72,12,6q-9,20.505-18,41c18.958-13.97,28.849-31.31,44-49-1-2.33-2-4.67-3-7C906.236,1132.6,912.3,1128.68,921,1122Zm66,26c-13.337,11.42-30.473,27.23-25,51,1,0.33,2,.67,3,1,18.11,7.73,38.43-37.59,30-48C992.938,1148.05,992.885,1148.19,987,1148Zm368,0c-12.87,10.06-30.56,25.34-26,49,0.67,1,1.33,2,2,3,2.33,0.33,4.67.67,7,1,17.84-8.27,28.05-29.24,25-50l-3-3h-5Zm-610,42c4.513,0.22,5.391.71,8,2l1,7c-5.594,9.22-9.8,21.57-21,25v-3c8.035-11.32,8-15.14,10-30C743.667,1190.67,744.333,1190.33,745,1190Zm391,0c4.51,0.22,5.39.71,8,2,2.59,13.38-8.78,26-17,32h-3c3.98-13.19,10.87-14.08,9-31Zm451,0c1.67,0.67,3.33,1.33,5,2-0.5,7.57-2.71,7.77-6,12h-5c-0.67-1.33-1.33-2.67-2-4,0.67-2,1.33-4,2-6C1583,1192.67,1585,1191.33,1587,1190Zm-749,28c-13.038,15.03-38.8,22.69-41,48,0.667,1.33,1.333,2.67,2,4C812.266,1269.05,840.343,1228.51,838,1218Z" transform="translate(-451 -1079.5)"/>
</svg>
