<svg xmlns="http://www.w3.org/2000/svg" width="1531.75" height="140.69" viewBox="0 0 1531.75 140.69">
  <defs>
    <style>
      .cls-1 {
        fill: #3e0d4e;
        fill-rule: evenodd;
      }
    </style>
  </defs>
  <path id="Color_Fill_2" data-name="Color Fill 2" class="cls-1" d="M1144,1477c-0.33,2.33-.67,4.67-1,7-0.67,1.33-1.33,2.67-2,4-7.37,2.39-13.82,3.18-22,1-8.49-11.47-13.38-120.64-5-135q5.505-1.005,11-2c3.2,1.62,4.19,1.85,6,5,6.97,26.98-11.93,95.72,3,120h10Zm180-119c16.32-.22,24.03,5.68,34,8,7,1.63,5.9-4.17,12-2-2.43,10.15-1.7,22.41-6,30h-1l-6-3c-1.9-20.45-27.52-33.16-45-19-12.26,9.94-18.43,42.75-14,68,8.71,49.7,43.33,60.87,64,14,2,0.67,4,1.33,6,2,2.5,8.73,5.58,25.51-1,32-15.84-6.97-42.52,10.15-63-2-29.46-17.48-37.15-78.18-14-109C1298.48,1365.71,1309.87,1364.16,1324,1358Zm-1037,1c36.417-1.07,57.663,2.44,63,33a41.682,41.682,0,0,1-8,32c-11.563,14.35-29.375,9.66-51,15q1,21,2,42,6,2.505,12,5c-0.667.67-1.333,1.33-2,2-10.437,2.56-37.5,5.57-42-4h2l9-3c0.263-26.2,6.452-96.49-3-114-4.538-.06-5.747-0.2-8-2,1-.67,2-1.33,3-2Q275.5,1361.005,287,1359Zm505,79q0.5,21.495,1,43,6,2.505,12,5c-0.667.67-1.333,1.33-2,2a85.318,85.318,0,0,1-41-1c-0.333-.67-0.667-1.33-1-2l11-3c0.365-28.12,8.109-92.88-2-115h-8c1.321-3.83,0-2.08,3-4,26.71-13.29,74.818-2.58,83,17C864.664,1419.87,829.579,1439.19,792,1438Zm-499-71v64C342.6,1433.16,346.366,1364.53,293,1367Zm499,0q0.5,31.995,1,64C843.315,1433.23,845.309,1364.54,792,1367Zm168,27c-0.241-10.15,1.059-19.3,5-25,21.4-2.6,10.408,10.02,14,25h22v3l-3,6q-10,.495-20,1c-0.482,18.33-5.618,65.77,6,73q6.5,0.495,13,1-0.5,3-1,6c-5.689,10.84-26.962,9.48-33,0-11.251-17.66,1.483-58.9-4-81q-6.5-.495-13-1v-1c0.333-1.67.667-3.33,1-5,1-.33,2-0.67,3-1C953.333,1394.67,956.667,1394.33,960,1394Zm665,0c-0.33,2.67-.67,5.33-1,8q-10.5,1.005-21,2c-0.35,22.15-4.23,57.69,4,73,6.47,1.18,8.46-.47,14-2l1,1c-0.01,19.07-26.38,19.85-34,8-9.61-14.95-4.85-58.61-4-81q-6.495-.495-13-1v-1c0.33-1.67.67-3.33,1-5l13-3c-0.35-9.25-.03-17.67,3-23q5.505-1.005,11-2c2,1.33,4,2.67,6,4q-0.495,10.995-1,22h21Zm-1229-2c24.218-.79,56,14.12,38,41-13.061,19.5-36.323,3.98-53,15,9.666,38.17,27.677,38.96,54,17,0.667,0.33,1.333.67,2,1v5c-8.619,21.48-41.194,27.47-61,12-17.087-13.34-20.35-56.62-6-76C376.385,1398.38,385.368,1396.72,396,1392Zm84,0c28.11,0.09,39.6,6.44,44,30,3.807,20.4-9.532,56.06,13,55q0.5,1.5,1,3c-8.439,22.55-26.477,7.52-33-6h-1c-12.166,13.32-47.748,31.17-54-1-6.632-34.12,31.954-32.17,56-38,0.363-14.15-1.438-29.42-11-34-6.5-3.86-16.979-1.69-20,4-6.788,7.99,1.762,17.2,0,23h-2c-4.823,1.35-8.572.23-13-1l-4-6C448.831,1400.97,466,1397.54,480,1392Zm101,0c22.819-1.51,56.315,20.3,32,34-4.13,3.87-10.7,3.24-16,1,4.444-13.68,8.253-28.18-15-27-43.209,20.66-2.2,122.21,36,63,1,0.67,2,1.33,3,2v1c-2.436,24.62-38.863,33.87-59,19-19.779-14.61-22.282-59.39-6-80C561.929,1397.49,571.5,1396.17,581,1392Zm87,0c24.3-.91,55.3,14.32,38,41-10.253,15.82-31.475,8.7-53,14-0.083,33.09,42.486,46.95,52,17h4v8c-9.108,19.22-39.982,26.88-60,12-19.884-14.78-21.586-60.21-5-80C649.711,1397.18,659.165,1395.91,668,1392Zm213,54c0.166,19.51,13.9,42.01,38,33,7.408-2.77,10.692-10.1,16-15,0.667,0.33,1.333.67,2,1-0.311,42.33-64.292,29.28-74-3-13.493-44.87,27.409-93.21,66-63,4.427,3.47,5.415,8.42,7,15C943.368,1444.58,909.538,1447.18,881,1446Zm217,32c-0.33,2-.67,4-1,6-1.65,3.65-2.39,4.31-6,6-5.25,2.67-10.45,1.46-16,0-3.25-4.63-6.11-12.5-10-17-10.77,8.04-44.75,37.54-54,4-8.63-31.3,27.08-42.92,55-42,0.71-15.11-1.04-29.37-11-34-5.06-3.05-11.6-1.56-17,0-7.69,10.75-.31,18.81-3,27h-2c-4.82,1.35-8.57.23-13-1-6.11-8.41-5.97-18.59,0-27q10.5-4.005,21-8c64.19-11.11,30.13,55.96,48,86h9Zm107-57q-1.005-7.5-2-15-4.005-2.505-8-5c-8.44-4.18-18.45.32-21,6-0.67,1.67-1.33,3.33-2,5,8.68,21,71.69,31.98,48,67-10.16,15.01-52.61,18.9-64,2-7.27-10.79-3.89-23.33,11-23-1.42,23.29,18.57,32.58,37,20q1.005-5.505,2-11c-10.77-18.91-44.3-18.15-50-41-9.69-38.86,52.39-44.06,63-21v9c-1.65,3.65-2.39,4.31-6,6C1210.33,1420.33,1207.67,1420.67,1205,1421Zm215-29c24.28-1.02,55.99,14.23,38,41-8.69,12.93-30.47,13.92-53,13,1.32,20.65,17.59,45.2,42,31,5.98-3.48,7.04-10.21,14-13v8c-9.17,19.29-39.93,26.9-60,12-19.68-14.61-21.85-58.48-6-79C1400.83,1397.45,1410.56,1396.19,1420,1392Zm103,0c38.98-.81,34.99,30.6,35,68,0,11.35,3.12,24.5,1,30-7,1.13-15.33,3.49-19-3v-18c3.43-22.37-.11-51.73-8-64-3.61-1.3-7.55-3.16-11-2-33.92,5.67-9.58,62.68-19,87-7.39,1.43-13.97,3.01-18-3-8.98-15.38,4.96-63.45-5-82-4.86.42-5.27,1.5-8-1-0.65-9.53,8.81-12.9,20-10,5.24,4.12,5.55,8.98,9,15C1508.06,1401.31,1512.12,1397.84,1523,1392Zm147,0c25.62-.96,55.77,16.08,37,42-10.5,14.51-31.33,7.91-52,13v1c4.07,40.62,33.58,36.83,54,15,0.67,0.33,1.33.67,2,1,0.26,27.84-38.9,35.83-59,21-19.34-14.27-23.96-63-5-82C1653.02,1396.97,1661.46,1395.75,1670,1392Zm99,0c12.64-.44,19.6,3.25,23,12,1.64,5.51.34,11.19-1,16q-4.995,3-10,6c-2.67-1-5.33-2-8-3v-1c2.3-6.76,3.19-11.54,1-19-0.67-.33-1.33-0.67-2-1-2.67.33-5.33,0.67-8,1-24.78,12.1-2.36,68.66-12,87h-13c-2-1.67-4-3.33-6-5,0.31-22.42,5.55-62.47-3-79-4.28-.26-5.5.47-9-1v-1c0.3-5.59,1.02-5.84,3-9,16.99-5.24,18.44,2.58,26,12C1756.91,1400.9,1760.08,1397.02,1769,1392Zm-1370,7c-10.867,6.14-22.18,20.99-17,39,26.91,1.41,41.392-7.04,34-33C410.969,1401.31,408.21,1399.13,399,1399Zm272,0c-11.593,6.31-22.775,20.4-17,40,14.3,0.35,24.02-2.45,32-8,3.888-8.91,7.059-23.57-3-29C680.138,1399.62,676.378,1399.06,671,1399Zm228,0c-11.361,6.4-22.678,20.69-17,40,27.043,1.4,45.915-13.54,31-37Zm506,39c16.82,0.58,25.2-1.51,34-8,3.39-10.42,3.26-19.58-2-28-6.9-2.52-12.17-2.96-20-1C1409.57,1411.15,1404.87,1419.53,1405,1438Zm268-39c-11.56,6.5-22.86,20.12-17,40,14.3,0.35,24.02-2.45,32-8,4.2-10.33,6.28-24.94-5-30C1679.67,1400.33,1676.33,1399.67,1673,1399ZM506,1442c-23.939-.71-40.331,9.33-34,33,1.333,1.33,2.667,2.67,4,4C497.769,1479.54,506.157,1463.15,506,1442Zm560,0c-21.19-1.2-54.1,22.52-30,36C1056.08,1486.65,1066.79,1459.98,1066,1442Z" transform="translate(-261 -1352)"/>
</svg>
